# xmcd CD database file
#
# Track frame offsets:
#	150
#	20405
#	40245
#	60750
#	89300
#	110420
#	131165
#	146285
#	170570
#	190025
#	207592
#
# Disc length: 3055 seconds
#
# Revision: 0
# Processed by: cddbd v1.5.1PL0 Copyright (c) Steve Scherf et al.
# Submitted via: CDex 1.51
#
DISCID=920bed0b
DTITLE=織田裕二 - My Pocket
DYEAR=1999
DGENRE=Japanese Pop
TTITLE0=Lie Lie Lie
TTITLE1=Together
TTITLE2=ボクラハタマニ
TTITLE3=「君に逢いたい」
TTITLE4=カブトムシ
TTITLE5=明日へ向かえ！
TTITLE6=SOMETHING TO SAY
TTITLE7=Digin' on YOU -with Maxi Priest-
TTITLE8=ゴメンナサイ
TTITLE9=それでも僕らは此処にいる
TTITLE10=いちばん小さな島で
EXTD=YEAR: 1999
EXTT0=
EXTT1=
EXTT2=
EXTT3=
EXTT4=
EXTT5=
EXTT6=
EXTT7=
EXTT8=
EXTT9=
EXTT10=
PLAYORDER=
